<?xml version="1.0" standalone="no"?>
<!DOCTYPE svg PUBLIC "-//W3C//DTD SVG 20010904//EN"
 "http://www.w3.org/TR/2001/REC-SVG-20010904/DTD/svg10.dtd">
<svg version="1.0" xmlns="http://www.w3.org/2000/svg"
 width="463.000000pt" height="515.000000pt" viewBox="0 0 463.000000 515.000000"
 preserveAspectRatio="xMidYMid meet">

<g transform="translate(0.000000,515.000000) scale(0.100000,-0.100000)"
fill="#000000" stroke="none">
<path d="M2065 5134 c-136 -17 -290 -55 -415 -101 -498 -185 -898 -602 -1058
-1103 -171 -534 -571 -1867 -577 -1920 -27 -253 118 -513 351 -629 142 -71 -8
-66 1959 -66 1761 0 1770 0 1836 21 311 97 516 421 455 717 -8 42 -157 467
-330 945 -173 477 -323 896 -334 932 -33 105 -76 201 -142 317 -105 183 -204
307 -348 436 -388 350 -897 514 -1397 451z"/>
<path d="M1300 871 c0 -30 58 -188 97 -263 143 -279 392 -471 711 -550 123
-31 341 -31 464 0 323 80 576 279 721 567 31 62 87 220 87 246 0 5 -391 9
-1040 9 -649 0 -1040 -4 -1040 -9z"/>
</g>
</svg>
