<?xml version="1.0" standalone="no"?>
<!DOCTYPE svg PUBLIC "-//W3C//DTD SVG 20010904//EN"
 "http://www.w3.org/TR/2001/REC-SVG-20010904/DTD/svg10.dtd">
<svg version="1.0" xmlns="http://www.w3.org/2000/svg"
 width="515.000000pt" height="434.000000pt" viewBox="0 0 515.000000 434.000000"
 preserveAspectRatio="xMidYMid meet">

<g transform="translate(0.000000,434.000000) scale(0.100000,-0.100000)"
fill="#000000" stroke="none">
<path d="M890 4275 c-223 -39 -418 -141 -580 -304 -151 -152 -243 -329 -289
-560 -21 -101 -21 -130 -21 -1255 0 -1132 0 -1154 21 -1251 50 -237 138 -405
294 -561 166 -165 372 -269 602 -303 49 -8 632 -11 1850 -11 1981 0 1851 -4
2000 71 151 76 264 208 322 377 l26 77 0 1175 c0 1314 5 1214 -71 1360 -84
160 -204 260 -389 324 -60 20 -72 21 -1890 26 l-1830 5 -73 27 c-90 32 -161
75 -227 135 l-50 45 56 52 c60 56 150 108 243 140 61 21 63 21 2076 26 1850 5
2017 6 2045 22 68 37 105 105 105 190 -1 91 -45 160 -122 193 -33 13 -253 15
-2030 14 -1592 -1 -2008 -4 -2068 -14z m3482 -2356 c60 -31 92 -88 96 -174 3
-58 0 -80 -17 -112 -40 -80 -120 -121 -215 -109 -102 12 -176 100 -176 208 1
166 163 263 312 187z"/>
</g>
</svg>
