<svg width="47" height="32" viewBox="0 0 47 32" fill="none" xmlns="http://www.w3.org/2000/svg">
<g opacity="0.54">
<path d="M41.4483 0.829254H5.52159C2.916 0.829254 0.794434 2.95082 0.794434 5.5565V26.3562C0.794434 28.9618 2.916 31.0833 5.52159 31.0833H41.4482C44.0538 31.0833 46.1753 28.9618 46.1753 26.3562V5.5565C46.1754 2.95082 44.0539 0.829254 41.4483 0.829254ZM44.2846 26.3561C44.2846 27.9198 43.0121 29.1924 41.4483 29.1924H5.52159C3.95781 29.1924 2.68528 27.9198 2.68528 26.3561V5.5565C2.68528 3.99272 3.95781 2.72019 5.52159 2.72019H41.4482C43.012 2.72019 44.2845 3.99272 44.2845 5.5565V26.3561H44.2846Z" fill="white"/>
<path d="M45.23 6.50192H1.7399C1.21802 6.50192 0.794434 6.92551 0.794434 7.44739V13.12C0.794434 13.6419 1.21802 14.0655 1.7399 14.0655H45.2301C45.7519 14.0655 46.1755 13.6419 46.1755 13.12V7.44739C46.1754 6.92551 45.7519 6.50192 45.23 6.50192ZM44.2846 12.1745H2.68528V8.39277H44.2845V12.1745H44.2846Z" fill="white"/>
<path d="M18.7575 19.7381H7.41226C6.89038 19.7381 6.4668 20.1617 6.4668 20.6835C6.4668 21.2054 6.89038 21.6289 7.41226 21.6289H18.7575C19.2794 21.6289 19.703 21.2053 19.703 20.6834C19.703 20.1616 19.2794 19.7381 18.7575 19.7381Z" fill="white"/>
<path d="M18.7575 23.5198H7.41226C6.89038 23.5198 6.4668 23.9434 6.4668 24.4653C6.4668 24.9872 6.89038 25.4108 7.41226 25.4108H18.7575C19.2794 25.4108 19.703 24.9872 19.703 24.4653C19.7029 23.9434 19.2794 23.5198 18.7575 23.5198Z" fill="white"/>
<path d="M37.6666 17.8472H35.7758C34.212 17.8472 32.9395 19.1197 32.9395 20.6835V22.5743C32.9395 24.1381 34.212 25.4106 35.7758 25.4106H37.6666C39.2304 25.4106 40.5029 24.1381 40.5029 22.5743V20.6835C40.5029 19.1198 39.2304 17.8472 37.6666 17.8472ZM38.6121 22.5744C38.6121 23.0963 38.1885 23.5199 37.6666 23.5199H35.7758C35.2539 23.5199 34.8303 23.0963 34.8303 22.5744V20.6836C34.8303 20.1617 35.2539 19.7381 35.7758 19.7381H37.6666C38.1885 19.7381 38.6121 20.1617 38.6121 20.6836V22.5744Z" fill="white"/>
</g>
</svg>
