<?xml version="1.0" standalone="no"?>
<!DOCTYPE svg PUBLIC "-//W3C//DTD SVG 20010904//EN"
 "http://www.w3.org/TR/2001/REC-SVG-20010904/DTD/svg10.dtd">
<svg version="1.0" xmlns="http://www.w3.org/2000/svg"
 width="501.000000pt" height="514.000000pt" viewBox="0 0 501.000000 514.000000"
 preserveAspectRatio="xMidYMid meet">

<g transform="translate(0.000000,514.000000) scale(0.100000,-0.100000)"
fill="#000000" stroke="none">
<path d="M135 5125 c-75 -26 -135 -116 -135 -202 0 -76 69 -169 142 -191 18
-6 67 -13 107 -17 109 -10 165 -44 206 -123 11 -24 31 -160 65 -450 27 -229
94 -803 150 -1275 55 -472 107 -891 115 -932 21 -100 46 -170 96 -266 154
-296 422 -496 752 -560 93 -18 158 -19 1280 -19 l1183 0 51 25 c33 17 61 41
79 68 26 37 29 51 29 117 0 66 -3 80 -29 117 -18 27 -46 51 -79 68 l-51 25
-1160 0 c-1231 0 -1220 0 -1345 47 -139 51 -291 197 -350 336 l-20 46 1347 4
c1474 4 1377 0 1552 63 155 55 280 133 390 244 174 173 260 344 314 626 75
385 160 880 164 956 14 263 -145 515 -388 614 -138 56 -52 54 -1947 54 l-1752
0 -6 58 c-31 276 -221 493 -493 563 -88 22 -209 24 -267 4z"/>
<path d="M1366 851 c-81 -27 -162 -85 -212 -154 -60 -82 -79 -142 -79 -257 0
-87 3 -101 34 -167 126 -271 472 -334 682 -124 210 211 147 555 -127 683 -87
41 -208 48 -298 19z"/>
<path d="M3526 859 c-65 -15 -153 -69 -206 -125 -159 -168 -155 -420 9 -585
210 -210 556 -147 682 124 31 66 34 80 34 167 0 113 -18 173 -76 254 -97 136
-279 203 -443 165z"/>
</g>
</svg>
