<?xml version="1.0" standalone="no"?>
<!DOCTYPE svg PUBLIC "-//W3C//DTD SVG 20010904//EN"
 "http://www.w3.org/TR/2001/REC-SVG-20010904/DTD/svg10.dtd">
<svg version="1.0" xmlns="http://www.w3.org/2000/svg"
 width="431.000000pt" height="514.000000pt" viewBox="0 0 431.000000 514.000000"
 preserveAspectRatio="xMidYMid meet">

<g transform="translate(0.000000,514.000000) scale(0.100000,-0.100000)"
fill="#000000" stroke="none">
<path d="M154 5116 c-37 -17 -61 -38 -85 -72 l-34 -49 0 -755 0 -755 28 -100
c91 -334 325 -598 641 -726 51 -20 111 -40 134 -44 l42 -7 2 -1211 3 -1212 23
-46 c75 -153 303 -149 373 6 18 38 19 101 19 1250 l0 1211 58 12 c153 32 341
140 480 276 178 172 288 402 312 652 13 135 13 1366 -1 1424 -15 68 -53 116
-115 145 -29 14 -68 25 -87 25 -70 0 -149 -49 -185 -115 -15 -27 -18 -104 -22
-745 -4 -531 -9 -729 -19 -770 -7 -30 -33 -97 -58 -148 -61 -124 -153 -219
-273 -280 l-85 -44 -5 979 c-5 887 -7 981 -22 1008 -36 66 -115 115 -185 115
-19 0 -58 -11 -87 -25 -62 -29 -100 -77 -115 -145 -7 -29 -11 -379 -11 -987
l0 -943 -47 22 c-173 81 -304 233 -360 418 -15 48 -18 144 -22 785 l-6 730
-34 49 c-38 54 -112 96 -171 96 -19 0 -58 -11 -86 -24z"/>
<path d="M3063 5096 c-108 -40 -190 -122 -235 -235 l-23 -56 0 -2310 0 -2310
23 -46 c75 -153 303 -149 373 6 17 36 19 74 19 406 l0 367 108 90 c514 429
854 1053 944 1732 19 143 16 547 -6 695 -80 560 -306 1067 -663 1487 -85 100
-135 138 -228 173 -90 34 -222 34 -312 1z"/>
</g>
</svg>
