<?xml version="1.0" standalone="no"?>
<!DOCTYPE svg PUBLIC "-//W3C//DTD SVG 20010904//EN"
 "http://www.w3.org/TR/2001/REC-SVG-20010904/DTD/svg10.dtd">
<svg version="1.0" xmlns="http://www.w3.org/2000/svg"
 width="512.000000pt" height="513.000000pt" viewBox="0 0 512.000000 513.000000"
 preserveAspectRatio="xMidYMid meet">

<g transform="translate(0.000000,513.000000) scale(0.100000,-0.100000)"
fill="#000000" stroke="none">
<path d="M2404 5101 c-156 -33 -317 -114 -430 -218 -23 -21 -251 -265 -506
-543 -256 -278 -666 -723 -913 -990 -246 -267 -465 -511 -485 -542 -74 -112
-71 -67 -68 -1238 l3 -1045 28 -75 c65 -175 180 -307 329 -379 144 -68 172
-71 679 -71 l449 0 0 663 c0 415 4 695 11 748 31 243 138 458 316 630 216 210
459 311 744 310 124 0 236 -18 334 -53 324 -115 586 -384 684 -703 47 -152 51
-216 51 -927 l0 -668 449 0 c507 0 535 3 679 71 149 72 264 204 329 379 l28
75 3 1045 c2 724 -1 1061 -8 1097 -19 89 -64 162 -172 281 -463 507 -1767
1910 -1823 1960 -179 162 -475 242 -711 193z"/>
<path d="M2402 1900 c-177 -47 -332 -172 -411 -330 -71 -145 -71 -142 -71
-897 l0 -673 640 0 640 0 0 673 c0 755 0 752 -71 897 -130 262 -443 404 -727
330z"/>
</g>
</svg>
