<?xml version="1.0" standalone="no"?>
<!DOCTYPE svg PUBLIC "-//W3C//DTD SVG 20010904//EN"
 "http://www.w3.org/TR/2001/REC-SVG-20010904/DTD/svg10.dtd">
<svg version="1.0" xmlns="http://www.w3.org/2000/svg"
 width="427.000000pt" height="514.000000pt" viewBox="0 0 427.000000 514.000000"
 preserveAspectRatio="xMidYMid meet">

<g transform="translate(0.000000,514.000000) scale(0.100000,-0.100000)"
fill="#000000" stroke="none">
<path d="M1985 5123 c-511 -34 -1020 -270 -1375 -639 -339 -352 -529 -752
-595 -1257 -20 -159 -19 -278 5 -422 29 -169 73 -322 152 -519 174 -439 515
-1022 966 -1656 204 -285 307 -390 474 -480 172 -93 321 -130 518 -130 197 0
346 37 518 130 209 113 327 250 717 835 413 618 663 1093 800 1515 96 299 113
516 65 825 -71 447 -264 832 -582 1161 -428 441 -1046 678 -1663 637z m388
-1297 c103 -31 146 -51 242 -116 173 -117 307 -316 351 -523 20 -94 20 -275
-1 -362 -73 -318 -308 -563 -620 -647 -113 -30 -317 -30 -430 0 -310 84 -548
330 -619 642 -22 93 -22 271 -2 367 64 300 298 553 591 638 98 29 146 34 275
30 98 -3 144 -9 213 -29z"/>
</g>
</svg>
