<svg width="23" height="29" viewBox="0 0 23 29" fill="none" xmlns="http://www.w3.org/2000/svg">
<path fill-rule="evenodd" clip-rule="evenodd" d="M18.452 9.53121H19.8517C21.3914 9.53121 22.6511 10.7429 22.6511 12.2239V25.6873C22.6511 27.1683 21.3914 28.38 19.8517 28.38H3.05526C1.51559 28.38 0.255859 27.1683 0.255859 25.6873V12.2239C0.255859 10.7429 1.51559 9.53121 3.05526 9.53121H4.45497V6.83852C4.45497 3.12262 7.5903 0.106812 11.4535 0.106812C15.3167 0.106812 18.452 3.12262 18.452 6.83852V9.53121ZM11.4535 2.79952C9.12999 2.79952 7.25439 4.60362 7.25439 6.83855V9.53123H15.6526V6.83855C15.6526 4.60362 13.777 2.79952 11.4535 2.79952ZM19.8517 25.6874H3.0553V12.224H19.8517V25.6874ZM14.253 18.9555C14.253 20.4365 12.9933 21.6482 11.4536 21.6482C9.91397 21.6482 8.65424 20.4365 8.65424 18.9555C8.65424 17.4745 9.91397 16.2628 11.4536 16.2628C12.9933 16.2628 14.253 17.4745 14.253 18.9555Z" fill="#9E9E9E"/>
</svg>
