<svg width="30" height="24" viewBox="0 0 30 24" fill="none" xmlns="http://www.w3.org/2000/svg">
<path d="M4.91869 0.814453V20.5303C4.91869 20.8612 4.79192 21.1786 4.56626 21.4126C4.3406 21.6467 4.03455 21.7781 3.71542 21.7781C3.39629 21.7781 3.09024 21.6467 2.86458 21.4126C2.63892 21.1786 2.51215 20.8612 2.51215 20.5303V5.8058H0.586914V20.5303C0.587854 21.3904 0.917765 22.2151 1.50427 22.8233C2.09078 23.4316 2.88598 23.7737 3.71542 23.7747H26.3369C27.1664 23.7737 27.9616 23.4316 28.5481 22.8233C29.1346 22.2151 29.4645 21.3904 29.4654 20.5303V0.814453H4.91869ZM27.5402 20.5303C27.5398 20.8611 27.4129 21.1783 27.1874 21.4122C26.9618 21.6461 26.6559 21.7777 26.3369 21.7781H6.60327C6.76256 21.3829 6.84437 20.9587 6.84393 20.5303V2.81099H27.5402V20.5303Z" fill="#F8F8F8"/>
<rect x="10.3076" y="9.08862" width="14.0947" height="2.20947" fill="#F8F8F8"/>
<rect x="10.3076" y="13.291" width="14.0947" height="2.20947" fill="#F8F8F8"/>
</svg>
