<svg width="32" height="24" viewBox="0 0 32 24" fill="none" xmlns="http://www.w3.org/2000/svg">
<path d="M30.2281 2.00364L30.0866 2.14506C30.016 2.07439 29.9201 2.03469 29.8202 2.03469H6.74583C6.64588 2.03469 6.55003 2.07439 6.47935 2.14506C6.40868 2.21574 6.36897 2.3116 6.36897 2.41154V19.717V19.7173H6.16897L30.2281 2.00364ZM30.2281 2.00364L30.0866 2.14507M30.2281 2.00364L30.0866 2.14507M30.0866 2.14507C30.1573 2.21574 30.197 2.31159 30.197 2.41154M30.0866 2.14507L30.197 2.41154M30.197 2.41154V19.7173C30.197 20.1232 30.0358 20.5125 29.7487 20.7996C29.4617 21.0866 29.0724 21.2479 28.6664 21.2479H5.96297L30.197 2.41154ZM31.7507 19.7183V19.7173V2.41154C31.7507 1.89952 31.5473 1.40847 31.1853 1.04642L31.0439 1.18784L31.1853 1.04642C30.8232 0.684368 30.3322 0.480969 29.8202 0.480969H6.74583C6.23381 0.480969 5.74276 0.684368 5.38071 1.04642C5.01865 1.40847 4.81526 1.89952 4.81526 2.41154V19.7173C4.81526 20.1232 4.654 20.5125 4.36696 20.7996C4.07992 21.0866 3.69061 21.2479 3.28468 21.2479C2.87875 21.2479 2.48944 21.0866 2.2024 20.7996L2.06098 20.941L2.2024 20.7996C1.91536 20.5125 1.75411 20.1232 1.75411 19.7173V5.87269C1.75411 5.66666 1.67226 5.46906 1.52657 5.32337C1.38088 5.17768 1.18328 5.09583 0.977249 5.09583C0.771214 5.09583 0.573617 5.17768 0.427927 5.32337C0.282238 5.46906 0.200391 5.66666 0.200391 5.87269L0.200388 19.7317L0.200393 19.7327C0.20447 20.548 0.53122 21.3286 1.1092 21.9037C1.68717 22.4788 2.46934 22.8016 3.28468 22.8016L28.6664 22.8016L28.6674 22.8016C29.4839 22.7975 30.2658 22.4714 30.8432 21.894C31.4205 21.3167 31.7467 20.5348 31.7507 19.7183ZM24.6009 9.88316C24.7466 9.73747 24.8284 9.53988 24.8284 9.33384C24.8284 9.1278 24.7466 8.93021 24.6009 8.78452C24.4552 8.63883 24.2576 8.55698 24.0516 8.55698H12.5144C12.3084 8.55698 12.1108 8.63883 11.9651 8.78452C11.8194 8.93021 11.7376 9.1278 11.7376 9.33384C11.7376 9.53988 11.8194 9.73747 11.9651 9.88316C12.1108 10.0289 12.3084 10.1107 12.5144 10.1107H24.0516C24.2576 10.1107 24.4552 10.0289 24.6009 9.88316ZM24.0516 13.1718H12.5144C12.3084 13.1718 12.1108 13.2537 11.9651 13.3994C11.8194 13.5451 11.7376 13.7427 11.7376 13.9487C11.7376 14.1547 11.8194 14.3523 11.9651 14.498C12.1108 14.6437 12.3084 14.7256 12.5144 14.7256H24.0516C24.2576 14.7256 24.4552 14.6437 24.6009 14.498C24.7466 14.3523 24.8284 14.1547 24.8284 13.9487C24.8284 13.7427 24.7466 13.5451 24.6009 13.3994C24.4552 13.2537 24.2576 13.1718 24.0516 13.1718Z" fill="white" stroke="white" stroke-width="0.4"/>
</svg>
