<?xml version="1.0" standalone="no"?>
<!DOCTYPE svg PUBLIC "-//W3C//DTD SVG 20010904//EN"
 "http://www.w3.org/TR/2001/REC-SVG-20010904/DTD/svg10.dtd">
<svg version="1.0" xmlns="http://www.w3.org/2000/svg"
 width="391.000000pt" height="513.000000pt" viewBox="0 0 391.000000 513.000000"
 preserveAspectRatio="xMidYMid meet">

<g transform="translate(0.000000,513.000000) scale(0.100000,-0.100000)"
fill="#000000" stroke="none">
<path d="M1754 5111 c-274 -49 -507 -170 -699 -365 -151 -152 -250 -316 -313
-516 -43 -136 -56 -226 -56 -380 0 -154 13 -244 56 -380 63 -200 162 -364 313
-516 189 -191 431 -319 695 -365 96 -17 324 -17 420 0 264 46 506 174 695 365
55 55 122 134 148 174 100 151 178 343 208 512 17 96 17 324 0 420 -30 169
-108 361 -208 512 -106 161 -318 342 -500 429 -236 113 -514 153 -759 110z"/>
<path d="M1750 2129 c-373 -42 -736 -198 -1027 -442 -410 -344 -668 -879 -676
-1400 -2 -117 -1 -124 26 -169 18 -31 44 -57 75 -75 l47 -28 1765 0 1765 0 47
28 c31 18 57 44 75 75 27 45 28 52 26 169 -8 521 -266 1056 -676 1400 -403
337 -933 500 -1447 442z"/>
</g>
</svg>
