<svg width="23" height="30" viewBox="0 0 23 30" fill="none" xmlns="http://www.w3.org/2000/svg">
<path d="M11.3322 27.6414C11.3322 27.6414 21.1429 18.3441 21.1429 11.2902C21.1429 8.68823 20.1093 6.19284 18.2694 4.35298C16.4295 2.51312 13.9341 1.47949 11.3322 1.47949C8.73023 1.47949 6.23484 2.51312 4.39497 4.35298C2.55511 6.19284 1.52148 8.68823 1.52148 11.2902C1.52148 18.3441 11.3322 27.6414 11.3322 27.6414ZM11.3322 16.1955C10.0312 16.1955 8.78351 15.6787 7.86358 14.7588C6.94365 13.8389 6.42683 12.5912 6.42683 11.2902C6.42683 9.98921 6.94365 8.74152 7.86358 7.82159C8.78351 6.90165 10.0312 6.38484 11.3322 6.38484C12.6332 6.38484 13.8809 6.90165 14.8008 7.82159C15.7207 8.74152 16.2375 9.98921 16.2375 11.2902C16.2375 12.5912 15.7207 13.8389 14.8008 14.7588C13.8809 15.6787 12.6332 16.1955 11.3322 16.1955Z" stroke="white" stroke-width="2"/>
</svg>
