<svg width="26" height="25" viewBox="0 0 26 25" fill="none" xmlns="http://www.w3.org/2000/svg">
<path fill-rule="evenodd" clip-rule="evenodd" d="M4.50414 19.3655C3.37099 20.4445 2.91671 21.6619 2.81692 22.6413H23.9546C23.8548 21.6619 23.4006 20.4445 22.2674 19.3655C20.8136 17.9812 18.1361 16.7284 13.3858 16.6456C8.63544 16.7284 5.95791 17.9812 4.50414 19.3655ZM12.8821 14.6579C8.07747 14.819 4.99379 16.1376 3.12497 17.9171C1.55526 19.4118 0.913005 21.1678 0.810102 22.6413H0.786133V24.6413H25.9831V22.6413H25.9614C25.8585 21.1678 25.2163 19.4118 23.6466 17.9171C21.7778 16.1376 18.6941 14.819 13.8895 14.6579V14.6413C13.7196 14.6413 13.5517 14.6427 13.3858 14.6454C13.2199 14.6427 13.052 14.6413 12.8821 14.6413V14.6579Z" fill="#FEFEFF"/>
<path d="M18.9363 6.6413C18.9363 9.39534 16.684 11.6413 13.8891 11.6413C11.0941 11.6413 8.8418 9.39534 8.8418 6.6413C8.8418 3.88726 11.0941 1.6413 13.8891 1.6413C16.684 1.6413 18.9363 3.88726 18.9363 6.6413Z" stroke="white" stroke-width="2"/>
</svg>
